<svg width="269" height="53" viewBox="0 0 269 53" fill="none" xmlns="http://www.w3.org/2000/svg">
<path fill-rule="evenodd" clip-rule="evenodd" d="M93.2931 11.8251C92.199 11.8251 91.1624 12.0752 90.2372 12.5211C90.0065 8.83296 86.9344 5.90285 83.1894 5.90285C82.0933 5.90285 81.0549 6.15373 80.1284 6.60119C79.8654 2.94446 76.8082 0.0489502 73.0856 0.0489502C69.191 0.0489502 66.0225 3.21746 66.0225 7.1122V18.8201C66.0225 19.9309 66.9231 20.8315 68.0339 20.8315C69.1447 20.8315 70.0452 19.9309 70.0452 18.8201V7.1122C70.0452 5.43555 71.4091 4.07161 73.0856 4.07161C74.7623 4.07161 76.1262 5.43555 76.1262 7.1122V39.3284V45.1823C76.1262 46.859 74.7623 48.2229 73.0856 48.2229C71.4091 48.2229 70.0452 46.859 70.0452 45.1823V33.4744C70.0452 32.3636 69.1447 31.4631 68.0339 31.4631H40.906C39.7952 31.4631 38.8947 32.3636 38.8947 33.4744C38.8947 34.5852 39.7952 35.4857 40.906 35.4857H66.0225V45.1823C66.0225 49.0771 69.191 52.2456 73.0856 52.2456C76.8083 52.2456 79.8656 49.3501 80.1284 45.6934C81.0549 46.1408 82.0933 46.3917 83.1894 46.3917C86.9344 46.3917 90.0065 43.4613 90.2372 39.7735C91.1624 40.2193 92.199 40.4694 93.2931 40.4694C97.1877 40.4694 100.356 37.3009 100.356 33.4063V18.8881C100.356 14.9935 97.1877 11.8251 93.2931 11.8251ZM86.2301 39.3284C86.2301 41.0051 84.8661 42.369 83.1895 42.369C81.5128 42.369 80.1489 41.0051 80.1489 39.3284V12.9661C80.1489 11.2895 81.5128 9.92551 83.1895 9.92551C84.8661 9.92551 86.2301 11.2895 86.2301 12.9661V39.3284ZM93.2931 36.4467C94.9696 36.4467 96.3336 35.0828 96.3336 33.4063V18.8881C96.3336 17.2117 94.9696 15.8478 93.2931 15.8478C91.6166 15.8478 90.2526 17.2117 90.2526 18.8881V33.4063C90.2526 35.0828 91.6166 36.4467 93.2931 36.4467Z" fill="#F2F2F2"/>
<path fill-rule="evenodd" clip-rule="evenodd" d="M33.0314 31.4631C31.9206 31.4631 31.0201 32.3636 31.0201 33.4744V45.1823C31.0201 46.859 29.6561 48.2229 27.9795 48.2229C26.3028 48.2229 24.9389 46.859 24.9389 45.1823V39.3284V12.9661V7.1122C24.9389 5.43555 26.3028 4.07161 27.9795 4.07161C29.6561 4.07161 31.0201 5.43555 31.0201 7.1122V18.8201C31.0201 19.9309 31.9206 20.8315 33.0314 20.8315H60.1594C61.2702 20.8315 62.1707 19.9309 62.1707 18.8201C62.1707 17.7093 61.2702 16.8088 60.1594 16.8088H35.0427V7.1122C35.0427 3.21746 31.8742 0.0489502 27.9795 0.0489502C24.2568 0.0489502 21.1997 2.94446 20.9367 6.60119C20.0102 6.15373 18.9717 5.90285 17.8756 5.90285C14.1305 5.90285 11.0584 8.83322 10.8278 12.5211C9.90259 12.0752 8.86595 11.8251 7.77193 11.8251C3.87719 11.8251 0.708679 14.9937 0.708679 18.8884V33.4063C0.708679 37.3009 3.87719 40.4693 7.77193 40.4693C8.86595 40.4693 9.90259 40.2192 10.8278 39.7733C11.0584 43.4615 14.1305 46.3916 17.8756 46.3916C18.9717 46.3916 20.0101 46.1407 20.9367 45.6932C21.1997 49.3499 24.2568 52.2455 27.9795 52.2455C31.8742 52.2455 35.0427 49.0769 35.0427 45.1822V33.4743C35.0427 32.3635 34.1423 31.4631 33.0314 31.4631ZM7.77219 36.4467C6.09569 36.4467 4.7316 35.0828 4.7316 33.4064V18.8884C4.7316 17.2117 6.09555 15.8478 7.77219 15.8478C9.4487 15.8478 10.8127 17.2117 10.8127 18.8884V33.4063C10.8125 35.0828 9.44857 36.4467 7.77219 36.4467ZM14.8352 39.3284C14.8352 41.0051 16.1993 42.369 17.8758 42.369C19.5524 42.369 20.9164 41.0051 20.9164 39.3284V12.9661C20.9164 11.2895 19.5524 9.92551 17.8758 9.92551C16.1991 9.92551 14.8352 11.2895 14.8352 12.9661V39.3284Z" fill="#F2F2F2"/>
<path d="M31.0143 26.2647V26.9391C31.0143 28.0499 31.9148 28.9504 33.0256 28.9504C34.1364 28.9504 35.0369 28.0499 35.0369 26.9391V26.2647C35.0369 25.1539 34.1364 24.2534 33.0256 24.2534C31.9148 24.2534 31.0143 25.1539 31.0143 26.2647Z" fill="#F2F2F2"/>
<path d="M70.0453 26.0411V25.3667C70.0453 24.2559 69.1447 23.3554 68.034 23.3554C66.9231 23.3554 66.0227 24.2559 66.0227 25.3667V26.0411C66.0227 27.1519 66.9231 28.0524 68.034 28.0524C69.1448 28.0524 70.0453 27.1519 70.0453 26.0411Z" fill="#F2F2F2"/>
<path d="M134.692 33.3172C133.905 34.2601 132.792 34.994 131.353 35.5188C129.915 36.034 128.32 36.2916 126.571 36.2916C124.734 36.2916 123.12 35.8931 121.73 35.096C120.35 34.2892 119.281 33.1228 118.522 31.5967C117.774 30.0706 117.39 28.2772 117.371 26.2165V24.7731C117.371 22.6541 117.725 20.8218 118.435 19.2763C119.154 17.721 120.185 16.5351 121.526 15.7186C122.877 14.8924 124.457 14.4793 126.265 14.4793C128.782 14.4793 130.751 15.082 132.17 16.2873C133.589 17.4829 134.43 19.2277 134.692 21.5216H130.435C130.24 20.3066 129.808 19.4172 129.137 18.8534C128.476 18.2897 127.562 18.0078 126.396 18.0078C124.909 18.0078 123.776 18.5667 122.999 19.6845C122.221 20.8023 121.827 22.4645 121.818 24.671V26.027C121.818 28.2529 122.24 29.9345 123.086 31.0718C123.932 32.2091 125.171 32.7777 126.804 32.7777C128.447 32.7777 129.618 32.4278 130.318 31.7279V28.0683H126.338V24.846H134.692V33.3172ZM145.569 24.3357L149.987 14.7709H154.769L147.8 28.3015V36H143.353V28.3015L136.383 14.7709H141.18L145.569 24.3357ZM162.424 14.7709L167.877 30.1678L173.301 14.7709H179.046V36H174.657V30.197L175.094 20.1802L169.364 36H166.361L160.645 20.1948L161.083 30.197V36H156.709V14.7709H162.424ZM187.24 28.5202V36H182.866V14.7709H191.147C192.742 14.7709 194.141 15.0625 195.347 15.6457C196.562 16.229 197.495 17.06 198.146 18.139C198.797 19.2082 199.123 20.4281 199.123 21.7987C199.123 23.8788 198.409 25.5215 196.98 26.7269C195.56 27.9224 193.592 28.5202 191.075 28.5202H187.24ZM187.24 24.9772H191.147C192.304 24.9772 193.184 24.705 193.787 24.1607C194.399 23.6164 194.705 22.8387 194.705 21.8278C194.705 20.7878 194.399 19.947 193.787 19.3054C193.174 18.6639 192.328 18.3334 191.25 18.314H187.24V24.9772ZM219.579 25.8666C219.579 27.9565 219.21 29.7887 218.471 31.3634C217.732 32.9381 216.673 34.1531 215.293 35.0085C213.922 35.8639 212.347 36.2916 210.569 36.2916C208.809 36.2916 207.239 35.8688 205.859 35.0231C204.479 34.1774 203.41 32.9721 202.651 31.4072C201.893 29.8325 201.509 28.0245 201.5 25.9833V24.9335C201.5 22.8436 201.874 21.0065 202.622 19.4221C203.38 17.8279 204.445 16.608 205.815 15.7624C207.196 14.907 208.77 14.4793 210.539 14.4793C212.309 14.4793 213.878 14.907 215.249 15.7624C216.629 16.608 217.694 17.8279 218.442 19.4221C219.2 21.0065 219.579 22.8387 219.579 24.9189V25.8666ZM215.147 24.9043C215.147 22.6784 214.748 20.987 213.951 19.8303C213.154 18.6736 212.017 18.0952 210.539 18.0952C209.072 18.0952 207.939 18.6687 207.142 19.8157C206.345 20.953 205.942 22.6249 205.932 24.8314V25.8666C205.932 28.0342 206.331 29.7158 207.128 30.9114C207.925 32.107 209.072 32.7048 210.569 32.7048C212.036 32.7048 213.164 32.1313 213.951 30.9843C214.739 29.8276 215.137 28.146 215.147 25.9395V24.9043ZM227.409 36H223.035V14.7709H227.409V36ZM248.74 36H244.366L235.851 22.032V36H231.477V14.7709H235.851L244.381 28.7681V14.7709H248.74V36ZM268.103 18.314H261.6V36H257.226V18.314H250.811V14.7709H268.103V18.314Z" fill="#F2F2F2"/>
</svg>
