<svg width="123" height="80" viewBox="0 0 123 80" fill="none" xmlns="http://www.w3.org/2000/svg">
<path d="M14.9537 71.6123C14.3238 72.3666 13.4334 72.9537 12.2825 73.3736C11.1317 73.7858 9.85636 73.9918 8.45664 73.9918C6.98694 73.9918 5.69608 73.673 4.58408 73.0354C3.47986 72.3899 2.62448 71.4568 2.01793 70.2359C1.41916 69.015 1.112 67.5803 1.09645 65.9318V64.777C1.09645 63.0818 1.38028 61.616 1.94794 60.3796C2.52338 59.1354 3.34766 58.1867 4.42078 57.5335C5.50168 56.8725 6.76531 56.542 8.21169 56.542C10.2257 56.542 11.8004 57.0241 12.9357 57.9884C14.0711 58.9448 14.7437 60.3407 14.9537 62.1759H11.5477C11.3922 61.2038 11.0461 60.4923 10.5096 60.0413C9.98078 59.5903 9.24982 59.3648 8.31667 59.3648C7.12691 59.3648 6.22098 59.8119 5.59888 60.7062C4.97678 61.6004 4.66185 62.9302 4.65407 64.6954V65.7801C4.65407 67.5609 4.99233 68.9062 5.66887 69.816C6.3454 70.7258 7.33687 71.1807 8.64327 71.1807C9.95745 71.1807 10.8945 70.9008 11.4544 70.3409V67.4131H8.27001V64.8353H14.9537V71.6123ZM23.6553 64.4271L27.1896 56.7753H31.0155L25.4399 67.5998V73.7585H21.8823V67.5998L16.3067 56.7753H20.1443L23.6553 64.4271ZM37.1392 56.7753L41.5017 69.0928L45.8408 56.7753H50.4366V73.7585H46.9256V69.1161L47.2755 61.1027L42.6915 73.7585H40.2886L35.7162 61.1144L36.0661 69.1161V73.7585H32.5668V56.7753H37.1392ZM56.9919 67.7747V73.7585H53.4926V56.7753H60.118C61.3933 56.7753 62.5131 57.0086 63.4773 57.4751C64.4493 57.9417 65.1959 58.6066 65.7169 59.4697C66.2379 60.3251 66.4984 61.301 66.4984 62.3975C66.4984 64.0616 65.9268 65.3758 64.7837 66.34C63.6484 67.2965 62.0737 67.7747 60.0597 67.7747H56.9919ZM56.9919 64.9403H60.118C61.0433 64.9403 61.7471 64.7226 62.2292 64.2871C62.7191 63.8516 62.9641 63.2295 62.9641 62.4208C62.9641 61.5888 62.7191 60.9161 62.2292 60.4029C61.7393 59.8897 61.0628 59.6253 60.1996 59.6097H56.9919V64.9403ZM82.8634 65.6518C82.8634 67.3237 82.5679 68.7895 81.9769 70.0493C81.3859 71.309 80.5383 72.2811 79.4341 72.9654C78.3377 73.6497 77.0779 73.9918 75.6549 73.9918C74.2474 73.9918 72.9915 73.6536 71.8873 72.977C70.7831 72.3005 69.9277 71.3363 69.3211 70.0843C68.7146 68.8245 68.4074 67.3782 68.3997 65.7451V64.9053C68.3997 63.2334 68.699 61.7637 69.2978 60.4962C69.9044 59.2209 70.7559 58.245 71.8523 57.5684C72.9565 56.8841 74.2163 56.542 75.6315 56.542C77.0468 56.542 78.3027 56.8841 79.3991 57.5684C80.5033 58.245 81.3548 59.2209 81.9536 60.4962C82.5602 61.7637 82.8634 63.2295 82.8634 64.8937V65.6518ZM79.3175 64.882C79.3175 63.1012 78.9986 61.7482 78.361 60.8228C77.7233 59.8974 76.8135 59.4347 75.6315 59.4347C74.4573 59.4347 73.5514 59.8935 72.9138 60.8111C72.2761 61.721 71.9534 63.0585 71.9456 64.8237V65.6518C71.9456 67.3859 72.2644 68.7312 72.9021 69.6877C73.5397 70.6442 74.4573 71.1224 75.6549 71.1224C76.8291 71.1224 77.7311 70.6636 78.361 69.746C78.9909 68.8206 79.3097 67.4754 79.3175 65.7102V64.882ZM89.1272 73.7585H85.6279V56.7753H89.1272V73.7585ZM106.192 73.7585H102.693L95.8808 62.5841V73.7585H92.3815V56.7753H95.8808L102.704 67.973V56.7753H106.192V73.7585ZM121.682 59.6097H116.48V73.7585H112.981V59.6097H107.848V56.7753H121.682V59.6097Z" fill="#EE4D64"/>
<path fill-rule="evenodd" clip-rule="evenodd" d="M95.4345 9.46011C94.5592 9.46011 93.7299 9.66017 92.9898 10.0168C92.8053 7.06636 90.3476 4.72228 87.3515 4.72228C86.4747 4.72228 85.644 4.92298 84.9027 5.28094C84.6924 2.35556 82.2466 0.0391541 79.2685 0.0391541C76.1529 0.0391541 73.6181 2.57396 73.6181 5.68975V15.0561C73.6181 15.9447 74.3385 16.6652 75.2271 16.6652C76.1157 16.6652 76.8362 15.9447 76.8362 15.0561V5.68975C76.8362 4.34844 77.9273 3.25728 79.2685 3.25728C80.6099 3.25728 81.701 4.34844 81.701 5.68975V31.4627V36.1459C81.701 37.4872 80.6099 38.5783 79.2685 38.5783C77.9273 38.5783 76.8362 37.4872 76.8362 36.1459V26.7795C76.8362 25.8909 76.1157 25.1705 75.2271 25.1705H53.5248C52.6362 25.1705 51.9158 25.8909 51.9158 26.7795C51.9158 27.6681 52.6362 28.3886 53.5248 28.3886H73.6181V36.1459C73.6181 39.2617 76.1529 41.7965 79.2685 41.7965C82.2467 41.7965 84.6925 39.4801 84.9027 36.5547C85.644 36.9126 86.4747 37.1133 87.3515 37.1133C90.3476 37.1133 92.8053 34.769 92.9898 31.8188C93.7299 32.1755 94.5592 32.3755 95.4345 32.3755C98.5502 32.3755 101.085 29.8407 101.085 26.725V15.1105C101.085 11.9948 98.5502 9.46011 95.4345 9.46011ZM89.7841 31.4627C89.7841 32.8041 88.6929 33.8952 87.3516 33.8952C86.0103 33.8952 84.9191 32.8041 84.9191 31.4627V10.3729C84.9191 9.03156 86.0103 7.9404 87.3516 7.9404C88.6929 7.9404 89.7841 9.03156 89.7841 10.3729V31.4627ZM95.4345 29.1574C96.7757 29.1574 97.8669 28.0662 97.8669 26.725V15.1105C97.8669 13.7694 96.7757 12.6782 95.4345 12.6782C94.0933 12.6782 93.0021 13.7694 93.0021 15.1105V26.725C93.0021 28.0662 94.0933 29.1574 95.4345 29.1574Z" fill="#EE4D64"/>
<path fill-rule="evenodd" clip-rule="evenodd" d="M47.2251 25.1705C46.3365 25.1705 45.616 25.8909 45.616 26.7795V36.1459C45.616 37.4872 44.5249 38.5783 43.1836 38.5783C41.8423 38.5783 40.7511 37.4872 40.7511 36.1459V31.4627V10.3729V5.68975C40.7511 4.34844 41.8423 3.25728 43.1836 3.25728C44.5249 3.25728 45.616 4.34844 45.616 5.68975V15.0561C45.616 15.9447 46.3365 16.6652 47.2251 16.6652H68.9275C69.8161 16.6652 70.5366 15.9447 70.5366 15.0561C70.5366 14.1675 69.8161 13.447 68.9275 13.447H48.8342V5.68975C48.8342 2.57396 46.2994 0.0391541 43.1836 0.0391541C40.2054 0.0391541 37.7597 2.35556 37.5494 5.28094C36.8081 4.92298 35.9773 4.72228 35.1005 4.72228C32.1044 4.72228 29.6467 7.06657 29.4622 10.0168C28.7221 9.66017 27.8928 9.46011 27.0175 9.46011C23.9018 9.46011 21.3669 11.9949 21.3669 15.1107V26.725C21.3669 29.8407 23.9018 32.3754 27.0175 32.3754C27.8928 32.3754 28.7221 32.1753 29.4622 31.8187C29.6467 34.7692 32.1044 37.1132 35.1005 37.1132C35.9773 37.1132 36.808 36.9125 37.5494 36.5546C37.7597 39.4799 40.2054 41.7964 43.1836 41.7964C46.2994 41.7964 48.8342 39.2616 48.8342 36.1458V26.7794C48.8342 25.8908 48.1138 25.1705 47.2251 25.1705ZM27.0178 29.1574C25.6765 29.1574 24.5853 28.0662 24.5853 26.7251V15.1107C24.5853 13.7694 25.6764 12.6782 27.0178 12.6782C28.359 12.6782 29.4501 13.7694 29.4501 15.1107V26.725C29.45 28.0662 28.3589 29.1574 27.0178 29.1574ZM32.6681 31.4627C32.6681 32.8041 33.7594 33.8952 35.1006 33.8952C36.4419 33.8952 37.5331 32.8041 37.5331 31.4627V10.3729C37.5331 9.03156 36.4419 7.9404 35.1006 7.9404C33.7593 7.9404 32.6681 9.03156 32.6681 10.3729V31.4627Z" fill="#EE4D64"/>
<path d="M45.6115 21.0118V21.5512C45.6115 22.4399 46.3319 23.1603 47.2205 23.1603C48.1091 23.1603 48.8296 22.4399 48.8296 21.5512V21.0118C48.8296 20.1231 48.1091 19.4027 47.2205 19.4027C46.3319 19.4027 45.6115 20.1231 45.6115 21.0118Z" fill="#EE4D64"/>
<path d="M76.8363 20.8329V20.2934C76.8363 19.4048 76.1158 18.6843 75.2272 18.6843C74.3385 18.6843 73.6182 19.4048 73.6182 20.2934V20.8329C73.6182 21.7215 74.3385 22.4419 75.2272 22.4419C76.1159 22.4419 76.8363 21.7215 76.8363 20.8329Z" fill="#EE4D64"/>
</svg>
